<svg xmlns="http://www.w3.org/2000/svg" viewBox="0 0 21 20"><defs><style>.cls-1{fill:#fbfdfd;}.cls-2{fill:#3fb5cb;}.cls-3{fill:#46b8cd;}.cls-4{fill:#f0f9fa;}.cls-5{fill:#f5fafc;}.cls-6{fill:#eef8fa;}</style></defs><title>Ресурс 2</title><g id="Слой_2" data-name="Слой 2"><g id="Слой_1-2" data-name="Слой 1"><path class="cls-1" d="M13,0h1c7,0,7,0,7,7-3.81-2.77-3.66-2.66-6.69,1.58-1.29,1.8-1.39,5.78-5.48,4,1.51,2,2.59.82,3.46-.5,1.19-1.79,2.26-3.66,3.45-5.45.54-.81.91-1.94,2.15-1.65,1.07.25,1.5,1.23,1.77,2.22,2.09,7.73-3.58,13.26-11,12C2.47,17.53.51,14.75,1,8.45,1.41,3.8,4.22,1.53,10.32,1A3.37,3.37,0,0,0,13,0Z"/><path class="cls-2" d="M9.4,18.81c8.85-1.44,11.89-6.13,8.18-13.42-1.26,2-2.38,3.81-3.53,5.6s-2.14,3.32-3.36,5.2a20.9,20.9,0,0,1-5-7c2.8.08,3,2.88,5.08,3.45,1.12-1.76,2.29-3.56,3.43-5.39C17.61,1.8,17.61,1.8,21,7v6a7.82,7.82,0,0,1-7,7H8C7.83,18.86,8.21,18.35,9.4,18.81Z"/><path class="cls-3" d="M9.4,18.81,8,20H7a7.82,7.82,0,0,1-7-7V7A7.82,7.82,0,0,1,7,0h6c.42,1,.87,2-.92,1.8-5.27-.41-9.18,1.34-10.14,7C1.12,13.52,3.24,16.16,9.4,18.81Z"/><path class="cls-4" d="M7,0A19,19,0,0,0,0,7C0,0,0,0,7,0Z"/><path class="cls-5" d="M0,13a17.28,17.28,0,0,0,7,7C0,20,0,20,0,13Z"/><path class="cls-6" d="M14,20a16.64,16.64,0,0,0,7-7C21,20,21,20,14,20Z"/></g></g></svg>