<svg xmlns="http://www.w3.org/2000/svg" viewBox="0 0 21 20"><defs><style>.cls-1{fill:#fefbfb;}.cls-2{fill:#fe7070;}.cls-3{fill:#fe7575;}.cls-4{fill:#fef4f4;}.cls-5{fill:#fef7f7;}.cls-6{fill:#fef2f2;}</style></defs><title>Ресурс 1</title><g id="Слой_2" data-name="Слой 2"><g id="Слой_1-2" data-name="Слой 1"><path class="cls-1" d="M13,0h1c7,0,7,0,7,7-3.81-2.77-3.66-2.66-6.69,1.58-1.3,1.8-1.39,5.79-5.48,4,1.5,2,2.57.82,3.46-.49,1.12-1.64,2-3.42,3.19-5,.65-.88.91-2.43,2.4-2.06s1.78,1.85,2,3.16c1.39,7.87-4.82,12.25-11.26,11.05C2.47,17.53.51,14.75,1,8.45,1.41,3.8,4.22,1.53,10.32,1A3.37,3.37,0,0,0,13,0Z"/><path class="cls-2" d="M9.38,18.81c8.84-1.42,11.85-6,8.24-13.42l-6.9,10.77a20.15,20.15,0,0,1-5-6.92c2.8,0,3,2.84,5.05,3.37,1.12-1.75,2.29-3.54,3.43-5.36C17.61,1.82,17.61,1.81,21,7v6a7.84,7.84,0,0,1-7,7H8C7.83,18.87,8.19,18.35,9.38,18.81Z"/><path class="cls-3" d="M9.38,18.81,8,20H7a7.84,7.84,0,0,1-7-7V7A7.84,7.84,0,0,1,7,0h6c.42,1,.85,2-.92,1.81-5.27-.42-9.21,1.33-10.14,7S4.72,17.08,9.38,18.81Z"/><path class="cls-4" d="M7,0A18.88,18.88,0,0,0,0,7C0,0,0,0,7,0Z"/><path class="cls-5" d="M0,13a17.35,17.35,0,0,0,7,7C0,20,0,20,0,13Z"/><path class="cls-6" d="M14,20a16.76,16.76,0,0,0,7-7C21,20,21,20,14,20Z"/></g></g></svg>